<svg width="627" height="588" viewBox="0 0 627 588" fill="none" xmlns="http://www.w3.org/2000/svg">
<path d="M531 587C328 552 137.5 559.5 249.5 543C361.5 526.5 464.5 534.5 384.5 517.5C304.5 500.5 28.4997 488.5 94.9997 476C161.5 463.5 244.506 453.318 172 454.5C80 456 32.3333 452.333 1 451M385 411C522.5 401 611.5 363.5 564 357.5C516.5 351.5 432.5 348 465.5 337C498.5 326 572 319 561 307C550 295 443.5 278.5 478.5 273C513.5 267.5 575.5 290 534 266.5C492.5 243 458 233 485 231.5C512 230 556 222 530 217C504 212 466.5 209 485 203C503.5 197 534.5 189.5 513.5 184C492.5 178.5 475.5 172 488.5 166C501.5 160 504 147 493.5 131M602.5 219C620 213 637 202.5 616 201C599.2 199.8 583 198.833 577 198.5M471.5 199C376.5 174.5 375 172.5 346 144.5C317 116.5 325.5 103.5 316 105C306.5 106.5 280 113.5 288 105C296 96.5 312 95 300 89.5C288 84 282 81.5 283.5 74.5C285 67.5 295.5 88.5 288 66C283.629 52.8863 281.823 46.5841 281.229 44C281.008 43.0371 280.955 42.5905 281 42.5M279.5 74.4999C222.5 67.9999 122 59.9999 144 54.9999C166 49.9999 218 26.9999 164.5 40.9999C111 54.9999 80.5001 56 78.0001 45C75.5001 34 78.0001 24.5 67.5001 22C57.0001 19.5 54.0001 17.5 58.5001 15.5C63.0001 13.5 69.5 16 66 11.5C63.2 7.9 60.8333 2.66667 60 0.5" stroke="#185997" stroke-width="2"/>
</svg>
